PathFileType	4	(X/Y/Z)	31_1_38_p0_0-175.trc
DataRate	CameraRate	NumFrames	NumMarkers	Units	OrigDataRate	OrigDataStartFrame	OrigNumFrames
49.0	49.0	5	27	m	49.0	132	176
Frame#	Time	RHip			RKnee			RAnkle			RBigToe			RSmallToe			RHeel			LHip			LKnee			LAnkle			LBigToe			LSmallToe			LHeel			Neck			Head			Nose			RShoulder			RElbow			RWrist			RThumb			RIndex			RPinky			LShoulder			LElbow			LWrist			LThumb			LIndex			LPinky			
		X1	Y1	Z1	X2	Y2	Z2	X3	Y3	Z3	X4	Y4	Z4	X5	Y5	Z5	X6	Y6	Z6	X7	Y7	Z7	X8	Y8	Z8	X9	Y9	Z9	X10	Y10	Z10	X11	Y11	Z11	X12	Y12	Z12	X13	Y13	Z13	X14	Y14	Z14	X15	Y15	Z15	X16	Y16	Z16	X17	Y17	Z17	X18	Y18	Z18	X19	Y19	Z19	X20	Y20	Z20	X21	Y21	Z21	X22	Y22	Z22	X23	Y23	Z23	X24	Y24	Z24	X25	Y25	Z25	X26	Y26	Z26	X27	Y27	Z27	
132	2.693877551020408	0.21090152532071632	0.6041483849633126	0.15102858025793442	0.18002516961186885	0.8030986533802151	0.5330077829697917	0.11873335892883642	1.05835920917911	0.9134101823639934	0.0631804132961361	0.8202927000103533	1.0172763913319287	0.1303238465040244	0.8534809223657419	1.0084650974353624	0.10091524797566644	1.1393026384011826	0.9464041943352445	-0.015393803127180977	0.616442721296732	0.12500080333747834	-0.05851845783662162	0.8031342630698778	0.5143047393085762	-0.08624419727480918	1.017268261933882	0.8928766832545609	-0.07106134441932825	0.8631156623516791	0.9932255005926005	-0.13302577124317833	0.9095028702360892	0.9788877902510509	-0.07338776647441267	1.0922428944802485	0.9242671906865665	0.14924874258952794	0.2838324941354808	-0.3453399214119727	0.15007503169730566	-0.009224283964665042	-0.503305882971331	0.1358686766107811	0.06397308644276996	-0.3374707328733967	0.3115946760606406	0.3455475659394165	-0.3058546119310503	0.3908233746968665	0.3392860837116764	-0.02782356145564665	0.3859011668082261	0.12202050524482114	-0.023681306880221385	0.36096282465893403	-0.03663434013656173	-0.05205971737603852	0.3733012607747589	-0.025794515677811474	-0.05309450845046955	0.37626335289985263	0.0005307702505688344	-0.013283234966972354	-0.022017862097868237	0.31773997081098615	-0.3314243946662704	-0.17263016372911769	0.38767539958704034	-0.16496025591615446	-0.10365621958920837	0.16159968516756354	-0.059706896480118496	-0.02711458225138478	0.07498414105991194	0.020377947494200598	-0.040367509733786604	0.003227597262838973	0.034256240844744594	-0.09139636401162281	0.06092466840335446	0.059113038774607295
133	2.7142857142857144	0.20577960033859244	0.5927053977768756	0.1562661918940361	0.18006132173662842	0.8032521513049679	0.5331919881017153	0.11876132729855286	1.0585677964764808	0.9134561701617753	0.063239533158158	0.8208801684795349	1.017229664660272	0.13025623617754062	0.8535446574733584	1.0084399223820057	0.10098044173807878	1.1394119928275446	0.9462864485838123	-0.01928813453150418	0.6198570926885181	0.13264794360109644	-0.05813546320709595	0.8068419802207688	0.5185859760179657	-0.08622677165845519	1.017220123978279	0.893089366721646	-0.07104395668645648	0.8629308261534185	0.9933141761004401	-0.13298682099099582	0.9095885692381593	0.9789399405755098	-0.07333975467748166	1.0922247844954172	0.9243095607771364	0.14500063561827753	0.2700567373264071	-0.348335336395057	0.15012075839200117	-0.010358276152751566	-0.5057634782049746	0.13246803710951321	0.060696397900585924	-0.34360375385470915	0.30965680535584295	0.3580065056437396	-0.313425485474173	0.3887227068901012	0.3565031699507728	-0.024849566965635124	0.3854863617314841	0.12311471925453658	-0.019619666441263044	0.35574925955235537	0.001282394697487044	-0.05545262205652335	0.3776707812934513	-0.023124869316781472	-0.046972622946424084	0.37487866691088795	-0.008717408469925319	-0.006619375119143293	-0.01882142199857718	0.33141330316164613	-0.332626021400279	-0.17341151537200958	0.39150053198711393	-0.15861427744632337	-0.10604163005665512	0.16909291934291693	-0.037614055342910756	-0.031060507564396767	0.10802034371967512	0.019327339270394643	-0.03660957482852074	0.019442702395991506	0.042056995092656306	-0.09219117657087025	0.06560486617256582	0.07134053922962101
134	2.7346938775510203	0.20896241976239874	0.581136357293793	0.16669966717767837	0.18020617389107788	0.8031866104884552	0.5332677069620427	0.1188252577305205	1.0582593169785268	0.9090583208550451	0.06247475965448153	0.8193899031528463	1.0176910437152837	0.12987786028224957	0.852242391067494	1.0087577724504144	0.10177910659024315	1.1435579674081513	0.9511199933336383	-0.019257193727761312	0.619720906507408	0.1326131030870028	-0.058167633389644306	0.8066433480506139	0.5184551080053728	-0.08620648481308105	1.0171783000450352	0.8929380038686034	-0.07094833467443526	0.8628503474255378	0.9932544508914549	-0.12825808374021339	0.8928486010614957	0.9774110661752182	-0.07333960185848654	1.0922097053344537	0.9241633253011845	0.14911622753728568	0.28052906787050613	-0.3521208497852556	0.1501659438492649	-0.010329683450760367	-0.5058950357548894	0.13263284196072933	0.05988202071698563	-0.34692822929697203	0.3098731938794234	0.35809681619113815	-0.3135167388379268	0.38664849485797026	0.37137315385022657	-0.028373361650988863	0.3858053337531342	0.12632073461682752	-0.012490392389279686	0.3543917623990827	0.03660213660643697	-0.06323803706886198	0.38649494387466604	-0.030796353724212466	-0.03851262733497415	0.3744575141289153	-0.005290239764958154	0.00838709124565837	-0.014969328113706394	0.34392566924059637	-0.33680283798791016	-0.17635637492283257	0.3854665986935123	-0.15057595370026453	-0.1002563593048483	0.17484339429672574	-0.025484413497984842	-0.0345962807080947	0.1222601793471776	0.023502466065990164	-0.0435367701911422	0.050621363193596586	0.05699503861920564	-0.09349425327222326	0.07130262465702458	0.08372395297818619
135	2.7551020408163267	0.20156965265487917	0.5955010035995043	0.1638615355629475	0.18025070715150063	0.8030457423599581	0.533296160930207	0.11434916825185422	1.0420280384818712	0.9075902688917217	0.06147547956020957	0.8157984709307349	1.013526177573348	0.1339725349389495	0.8530922994318617	1.0092751075155972	0.09271521299706328	1.1575581642637078	0.9470974961782058	-0.023675492779577145	0.6037764588075593	0.13430785874629658	-0.05854370022336272	0.8029907830696477	0.5145027246799376	-0.08618180587858028	1.0172804948643568	0.8927085235532507	-0.07418783999122952	0.8475939541691705	0.9910575913764423	-0.1281455927483864	0.8923942817866631	0.9771356096533511	-0.07333021342987986	1.0923701484289257	0.9240323651392123	0.1489446509080359	0.2782399732737622	-0.35551337029588365	0.14790407589742877	-0.004369664477550349	-0.5157003199522918	0.13667993200475487	0.05869894343033551	-0.35363206043303874	0.3101125926434553	0.35721824170885846	-0.3165153965202167	0.3737293921237735	0.3904115158235705	-0.02976289380555389	0.40250322595354976	0.16637220557600416	-0.003250992707262838	0.3636972184561559	0.05673426439458533	-0.06112077264534531	0.39841799953101537	-0.018639577392126298	-0.033768098314233476	0.38397148408983933	0.01365706503485125	0.022058168739377874	-0.018496368292089345	0.3571710865969196	-0.3378104721491683	-0.17670592087868064	0.3904395613910805	-0.14033589412954225	-0.09993021043448692	0.18373040646967678	-0.009742951405586715	-0.028882281656672556	0.12040573738011617	0.04863422138928193	-0.03585056024781229	0.059626146072875495	0.08224432107630707	-0.0929138160621036	0.08655725222055265	0.10609468541230273
136	2.7755102040816326	0.20855195953863748	0.5854549349802981	0.17749256531218616	0.18088700430099855	0.8062518078844852	0.5373139031282008	0.11885613371182846	1.0584123946619801	0.9090781658215813	0.061379649722701414	0.8152002687772	1.0134396982638796	0.13392864666802706	0.8524132726193481	1.00932353538293	0.10185874199900578	1.143745736144444	0.9508055661848512	-0.019471660594421902	0.6073164965007262	0.1391041897571906	-0.058197512703984995	0.8070268487061348	0.5225072335050736	-0.08620788705375093	1.0173533128787566	0.8926450072515333	-0.07420098319598244	0.8476958134125469	0.9910768352854755	-0.12819895381839486	0.8923212289238186	0.9771448507084389	-0.07333485465046624	1.0923764558975697	0.9237953611119849	0.14221164338944647	0.27799180977492854	-0.359676222646184	0.14797167830670513	-0.005370742686944081	-0.5188094293099715	0.1331478240511311	0.054833332130118824	-0.35931431976318245	0.3101481753662179	0.35698275707655475	-0.3165330312706241	0.3710034432344672	0.4060999010871676	-0.02974273253008368	0.4068931053786157	0.17103956278298854	0.0032460182898315557	0.39911880766528635	0.08896361647689961	-0.06896494679827177	0.41295470430274467	0.003123888815039848	-0.029192694938948376	0.3803803833721846	0.01702035396544877	0.03420095861381835	-0.018605574129163673	0.3571999754868808	-0.337659392245325	-0.1729060891519372	0.3938173320324264	-0.1369405870530881	-0.10323917197503561	0.18311454982468534	0.008424417324313526	-0.033131003922695815	0.13982277148752323	0.06516482944698897	-0.047948555220366784	0.10287779739052197	0.08071843886111454	-0.094087370222233	0.09186642567987105	0.12219747350067194
